<svg width="360" height="100" viewBox="0 0 360 100" fill="none" xmlns="http://www.w3.org/2000/svg">
<rect width="360" height="100" fill="white"/>
<g clip-path="url(#clip0_198_703)">
<path d="M101.362 16.0588H100.025V9.81996H101.362V12.344H103.954V9.81996H105.291V16.0588H103.954V13.5526H101.362V16.0588ZM106.649 14.9537C106.464 14.5865 106.371 14.1622 106.371 13.6881C106.371 13.2139 106.464 12.7897 106.653 12.4225C106.842 12.0553 107.095 11.7665 107.416 11.5597C107.736 11.3529 108.1 11.246 108.514 11.246C108.745 11.246 108.959 11.2816 109.152 11.3494C109.344 11.4171 109.515 11.5134 109.662 11.631C109.783 11.7308 109.886 11.8449 109.979 11.9697V11.3458H111.237V16.0588H109.961V15.4349C109.865 15.5562 109.751 15.6702 109.619 15.7701C109.462 15.8877 109.284 15.9768 109.088 16.0481C108.892 16.1159 108.685 16.1515 108.464 16.1515C108.072 16.1515 107.719 16.0446 107.405 15.8307C107.091 15.6168 106.842 15.3244 106.656 14.9572L106.649 14.9537ZM107.63 13.6881C107.63 13.9626 107.679 14.2014 107.779 14.4046C107.879 14.6114 108.018 14.7683 108.193 14.8824C108.368 14.9964 108.571 15.0499 108.802 15.0499C109.034 15.0499 109.248 14.9929 109.426 14.8824C109.605 14.7718 109.744 14.6114 109.84 14.4046C109.94 14.1979 109.986 13.959 109.986 13.6881C109.986 13.4171 109.936 13.1854 109.84 12.9857C109.744 12.7825 109.605 12.6257 109.426 12.508C109.248 12.3939 109.041 12.3333 108.802 12.3333C108.564 12.3333 108.368 12.3904 108.193 12.508C108.018 12.6257 107.879 12.7825 107.779 12.9857C107.679 13.189 107.63 13.4207 107.63 13.6881ZM113.726 13.6168C113.726 13.467 113.751 13.3316 113.801 13.2068C113.851 13.082 113.922 12.975 114.011 12.8824C114.1 12.7897 114.204 12.7184 114.328 12.6685C114.453 12.6185 114.581 12.5936 114.724 12.5936C114.831 12.5936 114.938 12.6078 115.041 12.6328C115.145 12.6613 115.23 12.6898 115.294 12.7255L115.633 11.3351C115.569 11.3102 115.487 11.2923 115.394 11.2745C115.298 11.2567 115.202 11.246 115.098 11.246C114.859 11.246 114.635 11.303 114.417 11.4135C114.2 11.5276 114.011 11.6809 113.851 11.8806C113.79 11.9554 113.744 12.0374 113.694 12.1159L113.672 11.3387H112.453V16.0517H113.726V13.6096V13.6168ZM117.041 10.3797C117.28 10.3797 117.469 10.3155 117.608 10.1836C117.747 10.0517 117.819 9.8877 117.819 9.68449C117.819 9.47059 117.751 9.30303 117.612 9.18182C117.473 9.06061 117.284 9 117.041 9C116.799 9 116.614 9.06417 116.474 9.19251C116.335 9.32086 116.264 9.48485 116.264 9.68806C116.264 9.90909 116.332 10.0802 116.467 10.2014C116.603 10.3226 116.795 10.3832 117.038 10.3832L117.041 10.3797ZM116.417 16.0553H117.683V11.3458H116.417V16.0588V16.0553ZM124.057 14.9251C123.911 14.9786 123.747 15.0036 123.562 15.0036C123.223 15.0036 122.909 14.9323 122.621 14.7861C122.332 14.6399 122.043 14.3654 121.751 13.9626L120.913 14.9144C121.109 15.1747 121.33 15.3993 121.576 15.5847C121.822 15.7701 122.104 15.9091 122.425 16.0018C122.742 16.098 123.095 16.1444 123.48 16.1444C123.954 16.1444 124.371 16.066 124.728 15.9091C125.084 15.7522 125.362 15.5241 125.565 15.2282C125.769 14.9323 125.868 14.5722 125.868 14.1515C125.868 13.8948 125.819 13.6667 125.715 13.4599C125.615 13.2531 125.469 13.0749 125.284 12.9251C125.095 12.7718 124.874 12.6435 124.61 12.5365C124.346 12.4296 124.054 12.344 123.729 12.2799C123.558 12.2442 123.398 12.2014 123.255 12.1551C123.113 12.1087 122.991 12.0517 122.888 11.9911C122.788 11.9269 122.71 11.8556 122.656 11.7736C122.603 11.6916 122.574 11.5954 122.574 11.4884C122.574 11.3565 122.614 11.2424 122.696 11.1462C122.774 11.0463 122.888 10.975 123.031 10.9251C123.173 10.8752 123.344 10.8503 123.537 10.8503C123.715 10.8503 123.89 10.8788 124.057 10.9358C124.225 10.9929 124.385 11.0784 124.528 11.1889C124.671 11.2995 124.81 11.4421 124.934 11.6061L125.783 10.7861C125.64 10.5544 125.462 10.3583 125.252 10.1943C125.041 10.0303 124.792 9.90909 124.507 9.82353C124.221 9.74153 123.89 9.69875 123.508 9.69875C123.198 9.69875 122.906 9.74153 122.631 9.83423C122.353 9.92335 122.111 10.0517 121.9 10.2157C121.69 10.3832 121.526 10.5793 121.405 10.8075C121.287 11.0357 121.227 11.2852 121.227 11.5526C121.227 11.82 121.266 12.0481 121.348 12.2585C121.43 12.4652 121.551 12.6506 121.719 12.8146C121.886 12.9786 122.093 13.1141 122.343 13.2246C122.592 13.3351 122.884 13.4278 123.216 13.5062C123.369 13.5312 123.512 13.5597 123.644 13.5989C123.776 13.6381 123.893 13.6809 124 13.7344C124.107 13.7879 124.2 13.8414 124.278 13.902C124.357 13.9626 124.414 14.0374 124.457 14.1159C124.499 14.1979 124.517 14.2834 124.517 14.3797C124.517 14.5116 124.474 14.6221 124.392 14.7148C124.31 14.8075 124.196 14.8788 124.05 14.9323L124.057 14.9251ZM131.191 16.0553V13.1711C131.191 12.7504 131.13 12.3939 131.009 12.1052C130.888 11.8164 130.706 11.6025 130.467 11.4599C130.228 11.3173 129.929 11.246 129.573 11.246C129.312 11.246 129.063 11.2995 128.824 11.4064C128.585 11.5134 128.382 11.656 128.214 11.8307C128.175 11.8734 128.146 11.9198 128.111 11.9626V9.46346H126.863V16.0588H128.129V13.2246C128.129 13.0998 128.154 12.9857 128.204 12.8788C128.253 12.7718 128.321 12.6756 128.41 12.5936C128.499 12.5116 128.599 12.4474 128.724 12.4011C128.849 12.3547 128.977 12.3333 129.12 12.3333C129.298 12.3262 129.448 12.3583 129.569 12.4225C129.69 12.4866 129.783 12.5936 129.84 12.7362C129.901 12.8788 129.929 13.057 129.929 13.2709V16.0624H131.195L131.191 16.0553ZM132.314 14.9501C132.129 14.5829 132.036 14.1586 132.036 13.6845C132.036 13.2103 132.129 12.7861 132.318 12.4189C132.507 12.0517 132.76 11.7629 133.081 11.5562C133.401 11.3494 133.765 11.2424 134.179 11.2424C134.41 11.2424 134.624 11.2781 134.817 11.3458C135.009 11.4135 135.18 11.5098 135.327 11.6275C135.448 11.7273 135.551 11.8414 135.644 11.9661V11.3422H136.902V16.0553H135.626V15.4314C135.53 15.5526 135.416 15.6667 135.284 15.7665C135.127 15.8841 134.949 15.9733 134.753 16.0446C134.556 16.1123 134.35 16.148 134.129 16.148C133.737 16.148 133.384 16.041 133.07 15.8271C132.756 15.6132 132.507 15.3209 132.321 14.9537L132.314 14.9501ZM133.294 13.6845C133.294 13.959 133.344 14.1979 133.444 14.4011C133.544 14.6078 133.683 14.7647 133.858 14.8788C134.032 14.9929 134.236 15.0463 134.467 15.0463C134.699 15.0463 134.913 14.9893 135.091 14.8788C135.269 14.7683 135.409 14.6078 135.505 14.4011C135.605 14.1943 135.651 13.9554 135.651 13.6845C135.651 13.4135 135.601 13.1818 135.505 12.9822C135.409 12.779 135.269 12.6221 135.091 12.5045C134.913 12.3904 134.706 12.3298 134.467 12.3298C134.228 12.3298 134.032 12.3868 133.858 12.5045C133.683 12.6221 133.544 12.779 133.444 12.9822C133.344 13.1854 133.294 13.4171 133.294 13.6845ZM138.756 16.0553H139.38V13.221C139.38 13.0963 139.405 12.9822 139.455 12.8752C139.505 12.7683 139.573 12.672 139.662 12.59C139.751 12.508 139.851 12.4439 139.975 12.3975C140.1 12.3512 140.228 12.3298 140.371 12.3298C140.549 12.3226 140.699 12.3547 140.82 12.4189C140.942 12.4831 141.034 12.59 141.091 12.7326C141.152 12.8752 141.18 13.0535 141.18 13.2674V16.0588H142.446V13.1711C142.446 12.7504 142.385 12.3939 142.264 12.1052C142.143 11.8164 141.961 11.6025 141.722 11.4599C141.483 11.3173 141.184 11.246 140.827 11.246C140.567 11.246 140.318 11.2995 140.079 11.4064C139.84 11.5134 139.637 11.656 139.469 11.8307C139.423 11.877 139.391 11.9305 139.355 11.9768L139.33 11.3422H138.118V16.0553H138.76H138.756ZM146.671 11.3422L144.881 13.1533V9.46346H143.615V16.0588H144.881V14.5829L145.312 14.18L146.806 16.0588H148.332L146.154 13.3957L148.343 11.3458H146.674L146.671 11.3422ZM152.257 11.3422H153.515V16.0553H152.239V15.4314C152.143 15.5526 152.029 15.6667 151.897 15.7665C151.74 15.8841 151.562 15.9733 151.366 16.0446C151.17 16.1123 150.963 16.148 150.742 16.148C150.35 16.148 149.997 16.041 149.683 15.8271C149.369 15.6132 149.12 15.3209 148.934 14.9537C148.749 14.5865 148.656 14.1622 148.656 13.6881C148.656 13.2139 148.749 12.7897 148.938 12.4225C149.127 12.0553 149.38 11.7665 149.701 11.5597C150.022 11.3529 150.385 11.246 150.799 11.246C151.031 11.246 151.245 11.2816 151.437 11.3494C151.63 11.4171 151.801 11.5134 151.947 11.631C152.068 11.7308 152.171 11.8449 152.264 11.9697V11.3458L152.257 11.3422ZM152.275 13.6845C152.275 13.4171 152.225 13.1818 152.129 12.9822C152.032 12.779 151.893 12.6221 151.715 12.5045C151.537 12.3904 151.33 12.3298 151.091 12.3298C150.852 12.3298 150.656 12.3868 150.482 12.5045C150.307 12.6221 150.168 12.779 150.068 12.9822C149.968 13.1854 149.918 13.4171 149.918 13.6845C149.918 13.9519 149.968 14.1979 150.068 14.4011C150.168 14.6078 150.307 14.7647 150.482 14.8788C150.656 14.9929 150.86 15.0463 151.091 15.0463C151.323 15.0463 151.537 14.9893 151.715 14.8788C151.893 14.7683 152.032 14.6078 152.129 14.4011C152.228 14.1943 152.275 13.9554 152.275 13.6845ZM156.007 13.6132C156.007 13.4635 156.032 13.328 156.082 13.2032C156.132 13.0784 156.204 12.9715 156.293 12.8788C156.382 12.7861 156.485 12.7148 156.61 12.6649C156.735 12.615 156.863 12.59 157.006 12.59C157.113 12.59 157.22 12.6043 157.323 12.6292C157.426 12.6578 157.512 12.6863 157.576 12.7219L157.915 11.3316C157.851 11.3066 157.769 11.2888 157.676 11.2709C157.58 11.2531 157.483 11.2424 157.38 11.2424C157.141 11.2424 156.917 11.2995 156.699 11.41C156.482 11.5241 156.293 11.6774 156.132 11.877C156.072 11.9519 156.025 12.0339 155.975 12.1123L155.954 11.3351H154.735V16.0481H156.007V13.6061V13.6132ZM103.851 23.2317C103.662 23.0784 103.441 22.9501 103.177 22.8431C102.913 22.7362 102.621 22.6506 102.296 22.5865C102.125 22.5508 101.965 22.508 101.822 22.4617C101.679 22.4153 101.558 22.3583 101.455 22.2977C101.355 22.2335 101.277 22.1622 101.223 22.0802C101.17 21.9982 101.141 21.902 101.141 21.795C101.141 21.6631 101.18 21.549 101.262 21.4528C101.341 21.3529 101.455 21.2816 101.597 21.2317C101.74 21.1818 101.911 21.1569 102.104 21.1569C102.282 21.1569 102.457 21.1854 102.624 21.2424C102.792 21.2995 102.952 21.385 103.095 21.4956C103.237 21.6061 103.376 21.7487 103.501 21.9127L104.35 21.0927C104.207 20.861 104.029 20.6649 103.818 20.5009C103.608 20.3369 103.359 20.2157 103.073 20.1301C102.788 20.0481 102.457 20.0054 102.075 20.0054C101.765 20.0054 101.473 20.0481 101.198 20.1408C100.92 20.23 100.678 20.3583 100.467 20.5223C100.257 20.6898 100.093 20.8859 99.9718 21.1141C99.8541 21.3423 99.7935 21.5918 99.7935 21.8592C99.7935 22.1266 99.8328 22.3547 99.9147 22.5651C99.9967 22.7718 100.118 22.9572 100.286 23.1212C100.453 23.2852 100.66 23.4207 100.909 23.5312C101.159 23.6417 101.451 23.7344 101.783 23.8128C101.936 23.8378 102.079 23.8663 102.211 23.9055C102.343 23.9448 102.46 23.9875 102.567 24.041C102.674 24.0945 102.767 24.148 102.845 24.2086C102.924 24.2692 102.981 24.344 103.023 24.4225C103.066 24.5045 103.084 24.59 103.084 24.6863C103.084 24.8182 103.041 24.9287 102.959 25.0214C102.877 25.1141 102.763 25.1854 102.617 25.2389C102.471 25.2923 102.307 25.3173 102.122 25.3173C101.783 25.3173 101.469 25.246 101.18 25.0998C100.892 24.9537 100.603 24.6792 100.31 24.2763L99.4727 25.2282C99.6688 25.4884 99.8898 25.713 100.136 25.8984C100.382 26.0838 100.663 26.2228 100.984 26.3155C101.302 26.4118 101.654 26.4581 102.04 26.4581C102.514 26.4581 102.931 26.3797 103.287 26.2228C103.644 26.066 103.922 25.8378 104.125 25.5419C104.328 25.246 104.428 24.8859 104.428 24.4653C104.428 24.2086 104.378 23.9804 104.275 23.7736C104.175 23.5669 104.029 23.3886 103.843 23.2389L103.851 23.2317ZM106.154 20.6863C106.392 20.6863 106.581 20.6221 106.72 20.4902C106.859 20.3583 106.931 20.1943 106.931 19.9911C106.931 19.7772 106.863 19.6096 106.724 19.4884C106.585 19.3672 106.396 19.3066 106.154 19.3066C105.911 19.3066 105.726 19.3708 105.587 19.4991C105.448 19.6275 105.376 19.7914 105.376 19.9947C105.376 20.2157 105.444 20.3868 105.58 20.508C105.715 20.6292 105.908 20.6898 106.15 20.6898L106.154 20.6863ZM105.53 26.3619H106.795V21.6488H105.53V26.3619ZM110.81 22.7255C110.931 22.7897 111.023 22.8966 111.081 23.0392C111.141 23.1818 111.17 23.3601 111.17 23.574V26.3654H112.435V23.4777C112.435 23.057 112.375 22.7005 112.253 22.4118C112.132 22.123 111.95 21.9091 111.712 21.7665C111.473 21.6239 111.173 21.5526 110.817 21.5526C110.556 21.5526 110.307 21.6061 110.068 21.713C109.829 21.82 109.626 21.9626 109.458 22.1373C109.412 22.1836 109.38 22.2371 109.344 22.2834L109.319 21.6488H108.107V26.3619H109.373V23.5276C109.373 23.4029 109.398 23.2888 109.448 23.1818C109.498 23.0749 109.565 22.9786 109.655 22.8966C109.744 22.8146 109.843 22.7505 109.968 22.7041C110.093 22.6578 110.221 22.6364 110.364 22.6364C110.542 22.6292 110.692 22.6613 110.813 22.7255H110.81ZM115.929 28.4118C115.555 28.4118 115.187 28.3583 114.824 28.2478C114.46 28.1373 114.164 27.9947 113.933 27.8164L114.385 26.9144C114.503 26.9964 114.642 27.0713 114.795 27.1355C114.949 27.1997 115.113 27.2531 115.28 27.2852C115.451 27.3209 115.622 27.3387 115.801 27.3387C116.111 27.3387 116.364 27.2923 116.564 27.1961C116.763 27.0998 116.913 26.9572 117.013 26.7683C117.113 26.5793 117.166 26.3405 117.166 26.0553V25.7237C117.141 25.7558 117.113 25.7879 117.081 25.82C116.917 25.984 116.717 26.1159 116.474 26.2121C116.232 26.3084 115.982 26.3583 115.722 26.3583C115.287 26.3583 114.902 26.2585 114.564 26.0553C114.225 25.8521 113.958 25.574 113.761 25.2175C113.565 24.861 113.469 24.4474 113.469 23.9804C113.469 23.5134 113.565 23.0927 113.758 22.7291C113.95 22.3619 114.214 22.0767 114.549 21.8663C114.884 21.656 115.266 21.549 115.694 21.549C115.872 21.549 116.043 21.5704 116.207 21.6096C116.371 21.6524 116.521 21.7095 116.66 21.7843C116.799 21.8592 116.924 21.9412 117.034 22.0339C117.095 22.0838 117.148 22.1408 117.198 22.1943L117.216 21.6453H118.428V26.0018C118.428 26.3868 118.371 26.7291 118.257 27.0285C118.143 27.3244 117.979 27.5776 117.761 27.7808C117.544 27.9875 117.28 28.1408 116.966 28.2478C116.653 28.3547 116.307 28.4082 115.918 28.4082L115.929 28.4118ZM117.205 23.9911C117.205 23.7237 117.155 23.4884 117.056 23.2816C116.956 23.0749 116.81 22.918 116.624 22.8039C116.439 22.6898 116.218 22.6328 115.968 22.6328C115.719 22.6328 115.512 22.6898 115.327 22.8075C115.141 22.9251 114.999 23.0856 114.895 23.2888C114.792 23.4956 114.738 23.7273 114.738 23.9875C114.738 24.2478 114.792 24.4902 114.895 24.697C114.999 24.9002 115.145 25.0606 115.327 25.1747C115.512 25.2888 115.726 25.3458 115.968 25.3458C116.211 25.3458 116.435 25.2888 116.624 25.1747C116.813 25.0606 116.956 24.9038 117.056 24.7005C117.155 24.4973 117.205 24.262 117.205 23.9875V23.9911ZM121.505 22.7041C121.626 22.6613 121.758 22.6364 121.9 22.6364C122.079 22.6292 122.228 22.6613 122.35 22.7255C122.471 22.7897 122.564 22.8966 122.621 23.0392C122.681 23.1818 122.71 23.3601 122.71 23.574V26.3654H123.975V23.4777C123.975 23.057 123.915 22.7005 123.794 22.4118C123.672 22.123 123.491 21.9091 123.252 21.7665C123.013 21.6239 122.713 21.5526 122.357 21.5526C122.097 21.5526 121.847 21.6061 121.608 21.713C121.369 21.82 121.166 21.9626 120.999 22.1373C120.959 22.18 120.931 22.2264 120.895 22.2692V19.7701H119.647V26.3654H120.913V23.5312C120.913 23.4064 120.938 23.2923 120.988 23.1854C121.038 23.0784 121.105 22.9822 121.195 22.9002C121.284 22.8182 121.384 22.754 121.508 22.7077L121.505 22.7041ZM128.425 21.6488H129.683V26.3619H128.407V25.738C128.31 25.8592 128.196 25.9733 128.064 26.0731C127.908 26.1907 127.729 26.2799 127.533 26.3512C127.337 26.4189 127.13 26.4546 126.909 26.4546C126.517 26.4546 126.164 26.3476 125.851 26.1337C125.537 25.9198 125.287 25.6275 125.102 25.2603C124.917 24.8931 124.824 24.4688 124.824 23.9947C124.824 23.5205 124.917 23.0963 125.105 22.7291C125.294 22.3619 125.548 22.0731 125.868 21.8663C126.189 21.6595 126.553 21.5526 126.966 21.5526C127.198 21.5526 127.412 21.5882 127.605 21.656C127.797 21.7237 127.968 21.82 128.114 21.9376C128.236 22.0374 128.339 22.1515 128.432 22.2763V21.6524L128.425 21.6488ZM128.442 23.9911C128.442 23.7237 128.392 23.4884 128.296 23.2888C128.2 23.0856 128.061 22.9287 127.883 22.8111C127.704 22.697 127.498 22.6364 127.259 22.6364C127.02 22.6364 126.824 22.6934 126.649 22.8111C126.474 22.9287 126.335 23.0856 126.236 23.2888C126.136 23.492 126.086 23.7237 126.086 23.9911C126.086 24.2585 126.136 24.5045 126.236 24.7077C126.335 24.9144 126.474 25.0713 126.649 25.1854C126.824 25.2995 127.027 25.3529 127.259 25.3529C127.491 25.3529 127.704 25.2959 127.883 25.1854C128.061 25.0749 128.2 24.9144 128.296 24.7077C128.396 24.5009 128.442 24.262 128.442 23.9911ZM132.168 26.3619V23.5276C132.168 23.4029 132.193 23.2888 132.243 23.1818C132.293 23.0749 132.36 22.9786 132.45 22.8966C132.539 22.8146 132.638 22.7505 132.763 22.7041C132.888 22.6578 133.016 22.6364 133.159 22.6364C133.337 22.6292 133.487 22.6613 133.608 22.7255C133.729 22.7897 133.822 22.8966 133.879 23.0392C133.94 23.1818 133.968 23.3601 133.968 23.574V26.3654H135.234V23.4777C135.234 23.057 135.173 22.7005 135.052 22.4118C134.931 22.123 134.749 21.9091 134.51 21.7665C134.271 21.6239 133.972 21.5526 133.615 21.5526C133.355 21.5526 133.105 21.6061 132.867 21.713C132.628 21.82 132.425 21.9626 132.257 22.1373C132.211 22.1836 132.179 22.2371 132.143 22.2834L132.118 21.6488H130.906V26.3619H132.171H132.168ZM137.13 20.6863C137.369 20.6863 137.558 20.6221 137.697 20.4902C137.836 20.3583 137.908 20.1943 137.908 19.9911C137.908 19.7772 137.84 19.6096 137.701 19.4884C137.562 19.3672 137.373 19.3066 137.13 19.3066C136.888 19.3066 136.703 19.3708 136.564 19.4991C136.425 19.6275 136.353 19.7914 136.353 19.9947C136.353 20.2157 136.421 20.3868 136.556 20.508C136.692 20.6292 136.884 20.6898 137.127 20.6898L137.13 20.6863ZM137.772 21.6488H136.507V26.3619H137.772V21.6488ZM142.346 26.3619V25.738C142.25 25.8592 142.136 25.9733 142.004 26.0731C141.847 26.1907 141.669 26.2799 141.473 26.3512C141.277 26.4189 141.07 26.4546 140.849 26.4546C140.457 26.4546 140.104 26.3476 139.79 26.1337C139.476 25.9198 139.227 25.6275 139.041 25.2603C138.856 24.8931 138.763 24.4688 138.763 23.9947C138.763 23.5205 138.856 23.0963 139.045 22.7291C139.234 22.3619 139.487 22.0731 139.808 21.8663C140.129 21.6595 140.492 21.5526 140.906 21.5526C141.138 21.5526 141.351 21.5882 141.544 21.656C141.737 21.7237 141.908 21.82 142.054 21.9376C142.175 22.0374 142.278 22.1515 142.371 22.2763V21.6524H143.63V26.3654H142.353L142.346 26.3619ZM142.382 23.9911C142.382 23.7237 142.332 23.4884 142.236 23.2888C142.139 23.0856 142 22.9287 141.822 22.8111C141.644 22.697 141.437 22.6364 141.198 22.6364C140.959 22.6364 140.763 22.6934 140.589 22.8111C140.414 22.9287 140.275 23.0856 140.175 23.2888C140.075 23.492 140.025 23.7237 140.025 23.9911C140.025 24.2585 140.075 24.5045 140.175 24.7077C140.275 24.9144 140.414 25.0713 140.589 25.1854C140.763 25.2995 140.966 25.3529 141.198 25.3529C141.43 25.3529 141.644 25.2959 141.822 25.1854C142 25.0749 142.139 24.9144 142.236 24.7077C142.335 24.5009 142.382 24.262 142.382 23.9911ZM103.847 33.5383C103.658 33.385 103.437 33.2567 103.173 33.1497C102.909 33.0428 102.617 32.9572 102.293 32.8931C102.122 32.8574 101.961 32.8146 101.818 32.7683C101.676 32.7219 101.555 32.6649 101.451 32.6043C101.351 32.5401 101.273 32.4688 101.22 32.3868C101.166 32.3048 101.138 32.2086 101.138 32.1016C101.138 31.9697 101.177 31.8556 101.259 31.7594C101.337 31.6595 101.451 31.5882 101.594 31.5383C101.736 31.4884 101.908 31.4635 102.1 31.4635C102.278 31.4635 102.453 31.492 102.621 31.549C102.788 31.6061 102.949 31.6916 103.091 31.8022C103.234 31.9127 103.373 32.0553 103.498 32.2193L104.346 31.3993C104.204 31.1676 104.025 30.9715 103.815 30.8075C103.605 30.6435 103.355 30.5223 103.07 30.4367C102.785 30.3547 102.453 30.312 102.072 30.312C101.761 30.312 101.469 30.3547 101.195 30.4474C100.917 30.5366 100.674 30.6649 100.464 30.8289C100.253 30.9964 100.089 31.1925 99.9682 31.4207C99.8506 31.6489 99.79 31.8984 99.79 32.1658C99.79 32.4332 99.8292 32.6613 99.9112 32.8717C99.9932 33.0784 100.114 33.2638 100.282 33.4278C100.45 33.5918 100.656 33.7273 100.906 33.8378C101.155 33.9483 101.448 34.041 101.779 34.1194C101.933 34.1444 102.075 34.1729 102.207 34.2121C102.339 34.2514 102.457 34.2941 102.564 34.3476C102.671 34.4011 102.763 34.4546 102.842 34.5152C102.92 34.5758 102.977 34.6506 103.02 34.7291C103.063 34.8111 103.081 34.8966 103.081 34.9929C103.081 35.1248 103.038 35.2353 102.956 35.328C102.874 35.4207 102.76 35.492 102.613 35.5455C102.467 35.5989 102.303 35.6239 102.118 35.6239C101.779 35.6239 101.466 35.5526 101.177 35.4064C100.888 35.2603 100.599 34.9858 100.307 34.5829L99.4691 35.5348C99.6652 35.795 99.8862 36.0196 100.132 36.205C100.378 36.3904 100.66 36.5294 100.981 36.6221C101.298 36.7184 101.651 36.7647 102.036 36.7647C102.51 36.7647 102.927 36.6863 103.284 36.5294C103.64 36.3726 103.918 36.1444 104.122 35.8485C104.325 35.5526 104.425 35.1925 104.425 34.7719C104.425 34.5152 104.375 34.287 104.271 34.0802C104.171 33.8735 104.025 33.6952 103.84 33.5455L103.847 33.5383ZM106.938 33.1391C107.127 33.0214 107.341 32.9644 107.583 32.9644C107.736 32.9644 107.886 32.9929 108.032 33.0464C108.179 33.0998 108.314 33.1711 108.439 33.2638C108.564 33.3565 108.667 33.4599 108.753 33.5704L109.448 32.7326C109.252 32.4581 108.977 32.2442 108.628 32.0909C108.278 31.9376 107.89 31.8592 107.469 31.8592C107.016 31.8592 106.614 31.9661 106.257 32.18C105.9 32.394 105.619 32.6863 105.416 33.0535C105.209 33.4207 105.109 33.8414 105.109 34.312C105.109 34.7825 105.212 35.1997 105.416 35.5704C105.619 35.9412 105.9 36.23 106.257 36.4439C106.614 36.6578 107.016 36.7647 107.469 36.7647C107.868 36.7647 108.246 36.6863 108.606 36.5294C108.966 36.3726 109.245 36.1658 109.441 35.9091L108.756 35.0713C108.656 35.1961 108.542 35.303 108.421 35.3922C108.3 35.4813 108.171 35.5455 108.032 35.5883C107.897 35.631 107.751 35.6489 107.597 35.6489C107.359 35.6489 107.145 35.5882 106.956 35.4706C106.767 35.353 106.617 35.1925 106.507 34.9893C106.396 34.7861 106.343 34.5615 106.343 34.312C106.343 34.0624 106.396 33.82 106.503 33.6168C106.61 33.4136 106.756 33.2567 106.945 33.1391H106.938ZM113.811 32.0731C113.573 31.9305 113.273 31.8592 112.917 31.8592C112.656 31.8592 112.407 31.9127 112.168 32.0196C111.929 32.1266 111.726 32.2692 111.558 32.4439C111.519 32.4866 111.491 32.533 111.455 32.5758V30.0767H110.207V36.672H111.473V33.8378C111.473 33.713 111.498 33.5989 111.548 33.492C111.597 33.385 111.665 33.2888 111.754 33.2068C111.843 33.1248 111.943 33.0606 112.068 33.0143C112.193 32.9679 112.321 32.9465 112.464 32.9465C112.642 32.9394 112.792 32.9715 112.913 33.0357C113.034 33.0998 113.127 33.2068 113.184 33.3494C113.245 33.492 113.273 33.6702 113.273 33.8841V36.6756H114.539V33.7879C114.539 33.3672 114.478 33.0107 114.357 32.7219C114.236 32.4332 114.054 32.2193 113.815 32.0767L113.811 32.0731ZM120.064 33.0464C120.278 33.4136 120.385 33.8378 120.385 34.312C120.385 34.7861 120.278 35.2104 120.064 35.5776C119.851 35.9448 119.555 36.2371 119.177 36.4474C118.799 36.6578 118.375 36.7647 117.897 36.7647C117.419 36.7647 116.988 36.6578 116.61 36.4474C116.232 36.2371 115.936 35.9483 115.719 35.5776C115.501 35.2104 115.394 34.7861 115.394 34.312C115.394 33.8378 115.501 33.4136 115.719 33.0464C115.936 32.6792 116.232 32.3868 116.61 32.1765C116.988 31.9661 117.416 31.8592 117.897 31.8592C118.378 31.8592 118.799 31.9661 119.177 32.1765C119.555 32.3868 119.851 32.6756 120.064 33.0464ZM119.102 34.312C119.109 34.0517 119.059 33.8164 118.956 33.6132C118.852 33.41 118.706 33.2496 118.524 33.1319C118.343 33.0143 118.132 32.9572 117.9 32.9572C117.669 32.9572 117.451 33.0178 117.269 33.1355C117.084 33.2531 116.938 33.4136 116.831 33.6168C116.724 33.82 116.674 34.0517 116.681 34.312C116.674 34.5686 116.724 34.7968 116.831 35.0036C116.938 35.2104 117.084 35.3708 117.269 35.4849C117.455 35.6025 117.665 35.6596 117.9 35.6596C118.136 35.6596 118.339 35.6025 118.524 35.4849C118.71 35.3708 118.852 35.2104 118.956 35.0036C119.059 34.7968 119.109 34.5686 119.102 34.312ZM125.662 33.0464C125.876 33.4136 125.982 33.8378 125.982 34.312C125.982 34.7861 125.876 35.2104 125.662 35.5776C125.448 35.9448 125.152 36.2371 124.774 36.4474C124.396 36.6578 123.972 36.7647 123.494 36.7647C123.016 36.7647 122.585 36.6578 122.207 36.4474C121.829 36.2371 121.533 35.9483 121.316 35.5776C121.098 35.2104 120.991 34.7861 120.991 34.312C120.991 33.8378 121.098 33.4136 121.316 33.0464C121.533 32.6792 121.829 32.3868 122.207 32.1765C122.585 31.9661 123.013 31.8592 123.494 31.8592C123.975 31.8592 124.396 31.9661 124.774 32.1765C125.152 32.3868 125.448 32.6756 125.662 33.0464ZM124.699 34.312C124.706 34.0517 124.656 33.8164 124.553 33.6132C124.45 33.41 124.303 33.2496 124.122 33.1319C123.94 33.0143 123.729 32.9572 123.498 32.9572C123.266 32.9572 123.048 33.0178 122.867 33.1355C122.681 33.2531 122.535 33.4136 122.428 33.6168C122.321 33.82 122.271 34.0517 122.278 34.312C122.271 34.5686 122.321 34.7968 122.428 35.0036C122.535 35.2104 122.681 35.3708 122.867 35.4849C123.052 35.6025 123.262 35.6596 123.498 35.6596C123.733 35.6596 123.936 35.6025 124.122 35.4849C124.307 35.3708 124.45 35.2104 124.553 35.0036C124.656 34.7968 124.706 34.5686 124.699 34.312ZM126.909 36.672H128.175V30.0767H126.909V36.672ZM135.908 33.0464C136.122 33.4136 136.228 33.8378 136.228 34.312C136.228 34.7861 136.122 35.2104 135.908 35.5776C135.694 35.9448 135.398 36.2371 135.02 36.4474C134.642 36.6578 134.218 36.7647 133.74 36.7647C133.262 36.7647 132.831 36.6578 132.453 36.4474C132.075 36.2371 131.779 35.9483 131.562 35.5776C131.344 35.2104 131.237 34.7861 131.237 34.312C131.237 33.8378 131.344 33.4136 131.562 33.0464C131.779 32.6792 132.075 32.3868 132.453 32.1765C132.831 31.9661 133.259 31.8592 133.74 31.8592C134.221 31.8592 134.642 31.9661 135.02 32.1765C135.398 32.3868 135.694 32.6756 135.908 33.0464ZM134.945 34.312C134.952 34.0517 134.902 33.8164 134.799 33.6132C134.696 33.41 134.549 33.2496 134.368 33.1319C134.186 33.0143 133.975 32.9572 133.744 32.9572C133.512 32.9572 133.294 33.0178 133.113 33.1355C132.927 33.2531 132.781 33.4136 132.674 33.6168C132.567 33.82 132.517 34.0517 132.524 34.312C132.517 34.5686 132.567 34.7968 132.674 35.0036C132.781 35.2104 132.927 35.3708 133.113 35.4849C133.298 35.6025 133.508 35.6596 133.744 35.6596C133.979 35.6596 134.182 35.6025 134.368 35.4849C134.553 35.3708 134.696 35.2104 134.799 35.0036C134.902 34.7968 134.952 34.5686 134.945 34.312ZM138.842 31.4385C138.877 31.3636 138.931 31.3066 139.006 31.271C139.081 31.2353 139.173 31.2139 139.287 31.2139C139.351 31.2139 139.426 31.2317 139.505 31.2638C139.583 31.2959 139.665 31.3351 139.74 31.385L140.114 30.451C139.983 30.3369 139.826 30.2478 139.644 30.18C139.458 30.1123 139.262 30.0767 139.056 30.0767C138.745 30.0767 138.478 30.1444 138.25 30.2834C138.022 30.4189 137.84 30.6079 137.712 30.8467C137.58 31.0856 137.515 31.3494 137.515 31.6382V32.0838H136.813V33.1533H137.515V36.6827H138.792V33.1533H139.808V32.0838H138.792V31.7273C138.792 31.6132 138.81 31.5205 138.845 31.4456L138.842 31.4385ZM147.876 34.0553C147.99 34.2763 148.043 34.5259 148.043 34.8039C148.043 35.1141 147.993 35.385 147.893 35.6203C147.794 35.8556 147.644 36.0517 147.448 36.205C147.252 36.3583 147.02 36.476 146.756 36.5579C146.492 36.6399 146.196 36.6792 145.868 36.6792H143.07V30.4403H145.779C146.196 30.4403 146.546 30.5009 146.835 30.6221C147.123 30.7433 147.341 30.9216 147.491 31.1533C147.64 31.385 147.712 31.6595 147.712 31.984C147.712 32.3405 147.622 32.6364 147.444 32.8752C147.316 33.0464 147.145 33.1818 146.931 33.2745C147.098 33.3351 147.259 33.41 147.394 33.5063C147.601 33.656 147.758 33.8378 147.872 34.0588L147.876 34.0553ZM144.353 32.9679H145.619C145.779 32.9679 145.918 32.9394 146.036 32.8788C146.154 32.8182 146.246 32.7398 146.307 32.6399C146.368 32.5401 146.4 32.4189 146.4 32.2834C146.4 32.0624 146.328 31.8948 146.186 31.7772C146.043 31.6595 145.826 31.5989 145.533 31.5989H144.346V32.9715L144.353 32.9679ZM146.713 34.7505C146.713 34.5972 146.674 34.4653 146.596 34.3583C146.517 34.2514 146.41 34.1694 146.271 34.1123C146.132 34.0553 145.965 34.0268 145.769 34.0268H144.353V35.5134H145.815C146.004 35.5134 146.168 35.4849 146.3 35.4278C146.432 35.3708 146.535 35.2852 146.606 35.164C146.678 35.0464 146.713 34.9038 146.713 34.7433V34.7505ZM152.104 34.7861C152.104 34.918 152.079 35.0392 152.032 35.1497C151.986 35.2638 151.918 35.3601 151.833 35.4456C151.747 35.5276 151.644 35.5918 151.53 35.6382C151.416 35.6809 151.287 35.7059 151.152 35.7059C150.963 35.7059 150.802 35.6631 150.671 35.5811C150.539 35.4991 150.439 35.3779 150.368 35.2211C150.296 35.0642 150.261 34.8788 150.261 34.6649V31.9661H148.995V34.8717C148.995 35.271 149.063 35.6096 149.195 35.8913C149.33 36.1729 149.519 36.3904 149.765 36.5437C150.011 36.6934 150.307 36.7719 150.653 36.7719C150.92 36.7719 151.17 36.7219 151.401 36.6221C151.633 36.5223 151.833 36.3833 151.997 36.205C152.05 36.148 152.093 36.0838 152.136 36.0196L152.168 36.6863H153.373V31.9733H152.107V34.7968L152.104 34.7861ZM157.772 34.4367C157.655 34.312 157.494 34.2014 157.294 34.1087C157.095 34.0125 156.852 33.9269 156.567 33.8521C156.346 33.7915 156.175 33.738 156.047 33.6916C155.918 33.6453 155.822 33.6025 155.758 33.5669C155.697 33.5241 155.651 33.4742 155.619 33.4136C155.587 33.353 155.569 33.2923 155.569 33.2282C155.569 33.164 155.583 33.1034 155.608 33.0499C155.637 32.9964 155.676 32.9501 155.729 32.9109C155.783 32.8717 155.851 32.8432 155.929 32.8253C156.007 32.8075 156.1 32.7968 156.2 32.7968C156.314 32.7968 156.439 32.8218 156.581 32.8681C156.724 32.9145 156.863 32.9822 156.995 33.0642C157.127 33.1462 157.248 33.2389 157.355 33.3423L158.032 32.5936C157.883 32.4439 157.712 32.3155 157.512 32.205C157.312 32.0945 157.098 32.0089 156.867 31.9519C156.635 31.8913 156.396 31.8628 156.154 31.8628C155.911 31.8628 155.679 31.8984 155.458 31.9661C155.237 32.0339 155.045 32.1301 154.874 32.2549C154.706 32.3797 154.571 32.5294 154.478 32.7041C154.382 32.8788 154.335 33.0749 154.335 33.2888C154.335 33.467 154.364 33.6275 154.421 33.7736C154.478 33.9198 154.56 34.0553 154.667 34.18C154.792 34.312 154.959 34.4296 155.17 34.533C155.38 34.6364 155.637 34.7291 155.94 34.8039C156.136 34.8574 156.296 34.9073 156.421 34.9501C156.546 34.9929 156.638 35.0357 156.696 35.0713C156.802 35.1426 156.856 35.2424 156.856 35.3743C156.856 35.4385 156.842 35.4991 156.817 35.5562C156.788 35.6132 156.749 35.6596 156.696 35.6988C156.642 35.738 156.578 35.7665 156.503 35.7879C156.428 35.8093 156.346 35.82 156.257 35.82C156.032 35.82 155.804 35.7772 155.58 35.6916C155.355 35.6061 155.152 35.4635 154.974 35.2674L154.182 35.9448C154.389 36.2014 154.663 36.4011 155.006 36.5473C155.348 36.6934 155.737 36.7647 156.179 36.7647C156.535 36.7647 156.856 36.7006 157.141 36.5686C157.426 36.4367 157.651 36.2585 157.815 36.0339C157.979 35.8093 158.061 35.549 158.061 35.2603C158.061 35.0927 158.036 34.943 157.99 34.8039C157.943 34.6685 157.868 34.5473 157.769 34.4367H157.772ZM159.655 29.6168C159.416 29.6168 159.227 29.6809 159.088 29.8093C158.949 29.9376 158.877 30.1016 158.877 30.3048C158.877 30.5259 158.945 30.697 159.081 30.8182C159.216 30.9394 159.409 31 159.651 31C159.893 31 160.079 30.9358 160.218 30.8039C160.357 30.672 160.428 30.508 160.428 30.3048C160.428 30.0909 160.36 29.9234 160.221 29.8022C160.082 29.6809 159.893 29.6203 159.651 29.6203L159.655 29.6168ZM159.031 36.6756H160.296V31.9626H159.031V36.6756ZM165.212 32.0767C164.974 31.9341 164.674 31.8628 164.318 31.8628C164.057 31.8628 163.808 31.9162 163.569 32.0232C163.33 32.1301 163.127 32.2727 162.959 32.4474C162.913 32.4938 162.881 32.5473 162.845 32.5936L162.82 31.959H161.608V36.672H162.874V33.8378C162.874 33.713 162.899 33.5989 162.949 33.492C162.999 33.385 163.066 33.2888 163.155 33.2068C163.245 33.1248 163.344 33.0606 163.469 33.0143C163.594 32.9679 163.722 32.9465 163.865 32.9465C164.043 32.9394 164.193 32.9715 164.314 33.0357C164.435 33.0998 164.528 33.2068 164.585 33.3494C164.646 33.492 164.674 33.6702 164.674 33.8841V36.6756H165.94V33.7879C165.94 33.3672 165.879 33.0107 165.758 32.7219C165.637 32.4332 165.455 32.2193 165.216 32.0767H165.212ZM171.252 33.2745C171.359 33.5633 171.405 33.8735 171.394 34.205L171.387 34.5972H168.029C168.057 34.7398 168.107 34.8717 168.175 34.9893C168.296 35.1961 168.471 35.3601 168.692 35.4742C168.913 35.5883 169.177 35.6489 169.48 35.6489C169.687 35.6489 169.879 35.6168 170.05 35.549C170.221 35.4849 170.407 35.3708 170.603 35.2104L171.209 36.0588C171.038 36.2121 170.845 36.344 170.638 36.4474C170.432 36.5508 170.218 36.6292 169.997 36.6827C169.776 36.7362 169.562 36.7612 169.344 36.7612C168.835 36.7612 168.385 36.6578 168.004 36.4474C167.622 36.2407 167.323 35.9555 167.113 35.5918C166.902 35.2282 166.795 34.8146 166.795 34.344C166.795 33.9768 166.856 33.6417 166.974 33.3387C167.091 33.0357 167.259 32.7718 167.473 32.5508C167.687 32.3298 167.94 32.1551 168.236 32.0339C168.532 31.9127 168.849 31.8521 169.195 31.8521C169.515 31.8521 169.811 31.9127 170.086 32.0303C170.36 32.148 170.596 32.3155 170.795 32.5259C170.995 32.7362 171.148 32.9858 171.255 33.2745H171.252ZM170.2 33.7879C170.189 33.6275 170.136 33.4849 170.043 33.3565C169.95 33.2282 169.833 33.1284 169.69 33.0535C169.548 32.9786 169.387 32.943 169.209 32.943C168.949 32.943 168.728 32.9929 168.546 33.0927C168.364 33.1925 168.225 33.3423 168.132 33.5383C168.089 33.6239 168.061 33.7202 168.04 33.8235H170.2V33.7879ZM175.458 34.4367C175.341 34.312 175.18 34.2014 174.981 34.1087C174.781 34.0125 174.539 33.9269 174.253 33.8521C174.032 33.7915 173.861 33.738 173.733 33.6916C173.605 33.6453 173.508 33.6025 173.444 33.5669C173.384 33.5241 173.337 33.4742 173.305 33.4136C173.273 33.353 173.255 33.2923 173.255 33.2282C173.255 33.164 173.27 33.1034 173.294 33.0499C173.323 32.9964 173.362 32.9501 173.416 32.9109C173.469 32.8717 173.537 32.8432 173.615 32.8253C173.694 32.8075 173.786 32.7968 173.886 32.7968C174 32.7968 174.125 32.8218 174.268 32.8681C174.41 32.9145 174.549 32.9822 174.681 33.0642C174.813 33.1462 174.934 33.2389 175.041 33.3423L175.719 32.5936C175.569 32.4439 175.398 32.3155 175.198 32.205C174.999 32.0945 174.785 32.0089 174.553 31.9519C174.321 31.8913 174.082 31.8628 173.84 31.8628C173.597 31.8628 173.366 31.8984 173.145 31.9661C172.924 32.0339 172.731 32.1301 172.56 32.2549C172.392 32.3797 172.257 32.5294 172.164 32.7041C172.068 32.8788 172.022 33.0749 172.022 33.2888C172.022 33.467 172.05 33.6275 172.107 33.7736C172.164 33.9198 172.246 34.0553 172.353 34.18C172.478 34.312 172.646 34.4296 172.856 34.533C173.066 34.6364 173.323 34.7291 173.626 34.8039C173.822 34.8574 173.983 34.9073 174.107 34.9501C174.232 34.9929 174.325 35.0357 174.382 35.0713C174.489 35.1426 174.542 35.2424 174.542 35.3743C174.542 35.4385 174.528 35.4991 174.503 35.5562C174.475 35.6132 174.435 35.6596 174.382 35.6988C174.328 35.738 174.264 35.7665 174.189 35.7879C174.114 35.8093 174.032 35.82 173.943 35.82C173.719 35.82 173.491 35.7772 173.266 35.6916C173.041 35.6061 172.838 35.4635 172.66 35.2674L171.868 35.9448C172.075 36.2014 172.35 36.4011 172.692 36.5473C173.034 36.6934 173.423 36.7647 173.865 36.7647C174.221 36.7647 174.542 36.7006 174.827 36.5686C175.113 36.4367 175.337 36.2585 175.501 36.0339C175.665 35.8093 175.747 35.549 175.747 35.2603C175.747 35.0927 175.722 34.943 175.676 34.8039C175.63 34.6685 175.555 34.5473 175.455 34.4367H175.458ZM180.004 34.8039C179.958 34.6685 179.883 34.5473 179.783 34.4367C179.665 34.312 179.505 34.2014 179.305 34.1087C179.106 34.0125 178.863 33.9269 178.578 33.8521C178.357 33.7915 178.186 33.738 178.057 33.6916C177.929 33.6453 177.833 33.6025 177.769 33.5669C177.708 33.5241 177.662 33.4742 177.63 33.4136C177.597 33.353 177.58 33.2923 177.58 33.2282C177.58 33.164 177.594 33.1034 177.619 33.0499C177.647 32.9964 177.687 32.9501 177.74 32.9109C177.794 32.8717 177.861 32.8432 177.94 32.8253C178.018 32.8075 178.111 32.7968 178.211 32.7968C178.325 32.7968 178.45 32.8218 178.592 32.8681C178.735 32.9145 178.874 32.9822 179.006 33.0642C179.138 33.1462 179.259 33.2389 179.366 33.3423L180.043 32.5936C179.893 32.4439 179.722 32.3155 179.523 32.205C179.323 32.0945 179.109 32.0089 178.877 31.9519C178.646 31.8913 178.407 31.8628 178.164 31.8628C177.922 31.8628 177.69 31.8984 177.469 31.9661C177.248 32.0339 177.056 32.1301 176.884 32.2549C176.717 32.3797 176.581 32.5294 176.489 32.7041C176.393 32.8788 176.346 33.0749 176.346 33.2888C176.346 33.467 176.375 33.6275 176.432 33.7736C176.489 33.9198 176.571 34.0553 176.678 34.18C176.802 34.312 176.97 34.4296 177.18 34.533C177.391 34.6364 177.647 34.7291 177.95 34.8039C178.147 34.8574 178.307 34.9073 178.432 34.9501C178.556 34.9929 178.649 35.0357 178.706 35.0713C178.813 35.1426 178.867 35.2424 178.867 35.3743C178.867 35.4385 178.852 35.4991 178.827 35.5562C178.799 35.6132 178.76 35.6596 178.706 35.6988C178.653 35.738 178.589 35.7665 178.514 35.7879C178.439 35.8093 178.357 35.82 178.268 35.82C178.043 35.82 177.815 35.7772 177.59 35.6916C177.366 35.6061 177.163 35.4635 176.984 35.2674L176.193 35.9448C176.4 36.2014 176.674 36.4011 177.016 36.5473C177.359 36.6934 177.747 36.7647 178.189 36.7647C178.546 36.7647 178.867 36.7006 179.152 36.5686C179.437 36.4367 179.662 36.2585 179.826 36.0339C179.99 35.8093 180.072 35.549 180.072 35.2603C180.072 35.0927 180.047 34.943 180 34.8039H180.004Z" fill="black"/>
<path d="M84.0145 22.9858C85.601 21.6489 86.6527 19.738 86.6562 17.5918C86.6634 13.4991 82.8701 9.83069 78.7668 9.83069H67.1197L67.1054 20.6221H57.9468C56.7026 20.6221 55.6937 21.6311 55.6937 22.8753L55.683 28.6328C55.683 30.8681 54.4495 31.7237 52.371 31.7237H44.7311V37H53.6331C58.2213 37 60.9985 33.7951 61.0591 30.1266L61.0698 25.7665H67.0983L67.084 35.7808C67.084 36.4368 67.6473 37 68.3069 37H79.4441C83.8113 36.9965 87.5404 33.8378 87.5475 29.5883C87.5511 26.8325 86.1892 24.3298 84.0145 22.9893V22.9858ZM72.4922 14.9573H78.3069C80.2177 14.9573 81.2195 16.2656 81.1946 17.8057C81.166 19.3779 80.15 20.6257 78.3033 20.6257H72.4851L72.4922 14.9608V14.9573ZM78.724 31.8628H72.4673L72.4744 25.763H78.7275C81.4049 25.763 82.1714 27.3601 82.1714 28.8111C82.1714 30.2621 81.191 31.8628 78.7204 31.8628H78.724ZM61.0555 9.83782V15.1141H53.4156C51.3372 15.1141 50.1036 15.9697 50.1036 18.205V23.763C50.1036 25.0072 49.0947 26.0161 47.8505 26.0161H38.7453V36.9965H34.1856C33.7329 36.9965 33.3657 36.6293 33.3657 36.1765V26.0161H25.3764V36.1765C25.3764 36.6293 25.0092 36.9965 24.5564 36.9965H20.0002V9.83069H24.56C25.0127 9.83069 25.3799 10.1979 25.3799 10.6507V20.8753H33.3728V10.6507C33.3728 10.1979 33.74 9.83069 34.1928 9.83069H38.7525V20.8753H44.7311V16.7113C44.7917 13.0428 47.5724 9.83782 52.1571 9.83782H61.0591H61.0555Z" fill="#004C99"/>
</g>
<rect width="112" height="36" transform="translate(228 4)" fill="#004C99"/>
<path d="M244.096 27L247.384 18.6H248.992L252.268 27H250.42L248.728 22.476C248.68 22.348 248.62 22.184 248.548 21.984C248.484 21.784 248.416 21.572 248.344 21.348C248.272 21.124 248.204 20.912 248.14 20.712C248.076 20.504 248.028 20.332 247.996 20.196L248.32 20.184C248.272 20.368 248.216 20.56 248.152 20.76C248.096 20.952 248.036 21.152 247.972 21.36C247.908 21.56 247.84 21.756 247.768 21.948C247.696 22.14 247.628 22.328 247.564 22.512L245.872 27H244.096ZM245.62 25.236L246.208 23.784H250.06L250.66 25.236H245.62ZM254.287 27V18.6H257.851C258.347 18.6 258.795 18.72 259.195 18.96C259.603 19.192 259.923 19.512 260.155 19.92C260.395 20.328 260.515 20.788 260.515 21.3C260.515 21.82 260.395 22.288 260.155 22.704C259.923 23.12 259.603 23.452 259.195 23.7C258.795 23.94 258.347 24.06 257.851 24.06H256.087V27H254.287ZM256.063 22.44H257.647C257.839 22.44 258.011 22.392 258.163 22.296C258.315 22.192 258.435 22.056 258.523 21.888C258.619 21.72 258.667 21.528 258.667 21.312C258.667 21.096 258.619 20.908 258.523 20.748C258.435 20.58 258.315 20.452 258.163 20.364C258.011 20.268 257.839 20.22 257.647 20.22H256.063V22.44ZM262.967 27V18.6H266.531C267.027 18.6 267.475 18.72 267.875 18.96C268.283 19.192 268.603 19.512 268.835 19.92C269.075 20.328 269.195 20.788 269.195 21.3C269.195 21.82 269.075 22.288 268.835 22.704C268.603 23.12 268.283 23.452 267.875 23.7C267.475 23.94 267.027 24.06 266.531 24.06H264.767V27H262.967ZM264.743 22.44H266.327C266.519 22.44 266.691 22.392 266.843 22.296C266.995 22.192 267.115 22.056 267.203 21.888C267.299 21.72 267.347 21.528 267.347 21.312C267.347 21.096 267.299 20.908 267.203 20.748C267.115 20.58 266.995 20.452 266.843 20.364C266.691 20.268 266.519 20.22 266.327 20.22H264.743V22.44ZM271.647 27V18.6H273.447V25.38H277.251V27H271.647ZM280.519 27V22.812L280.603 23.4L277.207 18.6H279.283L281.875 22.32L281.059 22.284L283.399 18.6H285.403L282.151 23.532L282.331 22.716V27H280.519ZM291.827 27V18.6H293.435L298.079 24.876H297.743C297.711 24.628 297.683 24.388 297.659 24.156C297.635 23.916 297.611 23.676 297.587 23.436C297.571 23.188 297.555 22.936 297.539 22.68C297.531 22.416 297.523 22.14 297.515 21.852C297.507 21.556 297.503 21.236 297.503 20.892V18.6H299.267V27H297.635L292.895 20.664L293.351 20.676C293.391 21.092 293.423 21.448 293.447 21.744C293.479 22.032 293.503 22.284 293.519 22.5C293.535 22.716 293.547 22.904 293.555 23.064C293.571 23.224 293.579 23.376 293.579 23.52C293.587 23.664 293.591 23.816 293.591 23.976V27H291.827ZM306.008 27.12C305.392 27.12 304.824 27.012 304.304 26.796C303.784 26.58 303.328 26.28 302.936 25.896C302.552 25.504 302.256 25.044 302.048 24.516C301.84 23.98 301.736 23.4 301.736 22.776C301.736 22.144 301.84 21.568 302.048 21.048C302.256 20.52 302.552 20.06 302.936 19.668C303.328 19.276 303.784 18.972 304.304 18.756C304.824 18.54 305.392 18.432 306.008 18.432C306.632 18.432 307.2 18.54 307.712 18.756C308.232 18.972 308.684 19.276 309.068 19.668C309.46 20.06 309.76 20.52 309.968 21.048C310.176 21.576 310.28 22.152 310.28 22.776C310.28 23.4 310.176 23.976 309.968 24.504C309.76 25.032 309.46 25.492 309.068 25.884C308.684 26.276 308.232 26.58 307.712 26.796C307.2 27.012 306.632 27.12 306.008 27.12ZM306.008 25.416C306.36 25.416 306.684 25.352 306.98 25.224C307.284 25.096 307.544 24.912 307.76 24.672C307.976 24.432 308.144 24.152 308.264 23.832C308.392 23.512 308.456 23.16 308.456 22.776C308.456 22.392 308.392 22.04 308.264 21.72C308.144 21.4 307.976 21.124 307.76 20.892C307.544 20.652 307.284 20.468 306.98 20.34C306.684 20.204 306.36 20.136 306.008 20.136C305.656 20.136 305.332 20.204 305.036 20.34C304.74 20.468 304.48 20.652 304.256 20.892C304.032 21.124 303.86 21.4 303.74 21.72C303.628 22.04 303.572 22.392 303.572 22.776C303.572 23.16 303.628 23.512 303.74 23.832C303.86 24.152 304.032 24.432 304.256 24.672C304.48 24.912 304.74 25.096 305.036 25.224C305.332 25.352 305.656 25.416 306.008 25.416ZM314.287 27L311.731 18.6H313.579L314.947 23.292C315.003 23.46 315.051 23.644 315.091 23.844C315.139 24.036 315.175 24.224 315.199 24.408C315.231 24.584 315.255 24.752 315.271 24.912C315.295 25.064 315.315 25.192 315.331 25.296L315.043 25.284C315.115 24.948 315.175 24.668 315.223 24.444C315.271 24.212 315.315 24.008 315.355 23.832C315.403 23.648 315.459 23.464 315.523 23.28L316.843 19.812H318.331L319.627 23.28C319.723 23.52 319.799 23.752 319.855 23.976C319.919 24.192 319.971 24.404 320.011 24.612C320.051 24.812 320.091 25.016 320.131 25.224L319.867 25.272C319.891 25.104 319.907 24.96 319.915 24.84C319.931 24.712 319.943 24.596 319.951 24.492C319.967 24.388 319.983 24.284 319.999 24.18C320.015 24.068 320.039 23.94 320.071 23.796C320.103 23.644 320.151 23.468 320.215 23.268L321.571 18.6H323.395L320.815 27H319.483L317.407 22.032L317.599 22.056L315.667 27H314.287Z" fill="white"/>
<path d="M21.176 75V66.6H24.596C25.052 66.6 25.464 66.716 25.832 66.948C26.208 67.172 26.508 67.48 26.732 67.872C26.956 68.264 27.068 68.7 27.068 69.18C27.068 69.66 26.956 70.096 26.732 70.488C26.508 70.88 26.208 71.196 25.832 71.436C25.464 71.668 25.052 71.784 24.596 71.784H22.472V75H21.176ZM22.472 70.536H24.572C24.788 70.536 24.984 70.476 25.16 70.356C25.336 70.228 25.476 70.064 25.58 69.864C25.692 69.656 25.748 69.428 25.748 69.18C25.748 68.932 25.692 68.708 25.58 68.508C25.476 68.308 25.336 68.148 25.16 68.028C24.984 67.908 24.788 67.848 24.572 67.848H22.472V70.536ZM29.3815 75V66.6H32.9575C33.4375 66.6 33.8775 66.72 34.2775 66.96C34.6855 67.192 35.0095 67.512 35.2495 67.92C35.4895 68.32 35.6095 68.772 35.6095 69.276C35.6095 69.732 35.4895 70.156 35.2495 70.548C35.0095 70.94 34.6895 71.256 34.2895 71.496C33.8895 71.728 33.4455 71.844 32.9575 71.844H30.6775V75H29.3815ZM34.3735 75L32.2375 71.208L33.5695 70.908L35.9455 75.012L34.3735 75ZM30.6775 70.596H33.0775C33.3095 70.596 33.5175 70.54 33.7015 70.428C33.8855 70.308 34.0295 70.148 34.1335 69.948C34.2375 69.74 34.2895 69.512 34.2895 69.264C34.2895 68.984 34.2215 68.74 34.0855 68.532C33.9575 68.316 33.7735 68.148 33.5335 68.028C33.3015 67.908 33.0375 67.848 32.7415 67.848H30.6775V70.596ZM41.724 75.12C41.132 75.12 40.584 75.012 40.08 74.796C39.584 74.58 39.148 74.28 38.772 73.896C38.404 73.504 38.116 73.048 37.908 72.528C37.708 72 37.608 71.424 37.608 70.8C37.608 70.176 37.708 69.604 37.908 69.084C38.116 68.556 38.404 68.1 38.772 67.716C39.148 67.324 39.584 67.02 40.08 66.804C40.584 66.588 41.132 66.48 41.724 66.48C42.316 66.48 42.86 66.588 43.356 66.804C43.86 67.02 44.296 67.324 44.664 67.716C45.04 68.108 45.328 68.568 45.528 69.096C45.736 69.616 45.84 70.184 45.84 70.8C45.84 71.416 45.736 71.988 45.528 72.516C45.328 73.036 45.04 73.492 44.664 73.884C44.296 74.276 43.86 74.58 43.356 74.796C42.86 75.012 42.316 75.12 41.724 75.12ZM41.724 73.86C42.132 73.86 42.504 73.784 42.84 73.632C43.184 73.48 43.48 73.268 43.728 72.996C43.976 72.716 44.168 72.392 44.304 72.024C44.448 71.648 44.52 71.24 44.52 70.8C44.52 70.36 44.448 69.956 44.304 69.588C44.168 69.212 43.976 68.888 43.728 68.616C43.48 68.336 43.184 68.12 42.84 67.968C42.504 67.816 42.132 67.74 41.724 67.74C41.316 67.74 40.94 67.816 40.596 67.968C40.26 68.12 39.964 68.332 39.708 68.604C39.46 68.876 39.268 69.2 39.132 69.576C38.996 69.944 38.928 70.352 38.928 70.8C38.928 71.24 38.996 71.648 39.132 72.024C39.268 72.4 39.46 72.724 39.708 72.996C39.964 73.268 40.26 73.48 40.596 73.632C40.94 73.784 41.316 73.86 41.724 73.86ZM51.9507 75.12C51.3427 75.12 50.7747 75.012 50.2467 74.796C49.7187 74.572 49.2547 74.264 48.8547 73.872C48.4547 73.48 48.1427 73.024 47.9187 72.504C47.7027 71.976 47.5947 71.408 47.5947 70.8C47.5947 70.2 47.7027 69.64 47.9187 69.12C48.1427 68.6 48.4507 68.148 48.8427 67.764C49.2427 67.372 49.7067 67.068 50.2347 66.852C50.7627 66.636 51.3307 66.528 51.9387 66.528C52.3627 66.528 52.7747 66.588 53.1747 66.708C53.5827 66.828 53.9507 66.996 54.2787 67.212C54.6067 67.428 54.8747 67.676 55.0827 67.956L54.2427 68.832C54.0027 68.6 53.7547 68.408 53.4987 68.256C53.2507 68.104 52.9947 67.988 52.7307 67.908C52.4667 67.828 52.2027 67.788 51.9387 67.788C51.5067 67.788 51.1067 67.864 50.7387 68.016C50.3787 68.168 50.0587 68.38 49.7787 68.652C49.5067 68.924 49.2947 69.244 49.1427 69.612C48.9907 69.972 48.9147 70.368 48.9147 70.8C48.9147 71.216 48.9947 71.612 49.1547 71.988C49.3147 72.356 49.5347 72.68 49.8147 72.96C50.1027 73.24 50.4307 73.46 50.7987 73.62C51.1747 73.78 51.5707 73.86 51.9867 73.86C52.2987 73.86 52.5947 73.816 52.8747 73.728C53.1547 73.632 53.4027 73.5 53.6187 73.332C53.8347 73.164 54.0027 72.972 54.1227 72.756C54.2427 72.532 54.3027 72.296 54.3027 72.048V71.808L54.4827 71.976H51.9147V70.692H55.6347C55.6507 70.78 55.6627 70.868 55.6707 70.956C55.6787 71.036 55.6827 71.116 55.6827 71.196C55.6907 71.268 55.6947 71.34 55.6947 71.412C55.6947 71.964 55.5987 72.468 55.4067 72.924C55.2147 73.372 54.9467 73.76 54.6027 74.088C54.2667 74.416 53.8707 74.672 53.4147 74.856C52.9667 75.032 52.4787 75.12 51.9507 75.12ZM57.9823 75V66.6H61.5583C62.0383 66.6 62.4783 66.72 62.8783 66.96C63.2863 67.192 63.6103 67.512 63.8503 67.92C64.0903 68.32 64.2103 68.772 64.2103 69.276C64.2103 69.732 64.0903 70.156 63.8503 70.548C63.6103 70.94 63.2903 71.256 62.8903 71.496C62.4903 71.728 62.0463 71.844 61.5583 71.844H59.2783V75H57.9823ZM62.9743 75L60.8383 71.208L62.1703 70.908L64.5463 75.012L62.9743 75ZM59.2783 70.596H61.6783C61.9103 70.596 62.1183 70.54 62.3023 70.428C62.4863 70.308 62.6303 70.148 62.7343 69.948C62.8383 69.74 62.8903 69.512 62.8903 69.264C62.8903 68.984 62.8223 68.74 62.6863 68.532C62.5583 68.316 62.3743 68.148 62.1343 68.028C61.9023 67.908 61.6383 67.848 61.3423 67.848H59.2783V70.596ZM66.05 75L69.302 66.6H70.622L73.85 75H72.47L70.55 69.936C70.526 69.88 70.478 69.744 70.406 69.528C70.342 69.312 70.266 69.072 70.178 68.808C70.09 68.544 70.01 68.304 69.938 68.088C69.866 67.864 69.818 67.72 69.794 67.656L70.07 67.644C70.022 67.78 69.962 67.952 69.89 68.16C69.826 68.368 69.754 68.588 69.674 68.82C69.602 69.052 69.53 69.272 69.458 69.48C69.386 69.68 69.326 69.848 69.278 69.984L67.37 75H66.05ZM67.49 72.912L67.97 71.664H71.786L72.338 72.912H67.49ZM75.9283 75V66.6H77.2003L80.2603 71.58L79.6483 71.568L82.7443 66.6H83.9443V75H82.6483V71.556C82.6483 70.836 82.6643 70.188 82.6963 69.612C82.7363 69.036 82.8003 68.464 82.8883 67.896L83.0563 68.34L80.3083 72.588H79.5163L76.8523 68.388L76.9843 67.896C77.0723 68.432 77.1323 68.984 77.1643 69.552C77.2043 70.112 77.2243 70.78 77.2243 71.556V75H75.9283ZM86.8994 75V66.6H88.1714L91.2314 71.58L90.6194 71.568L93.7154 66.6H94.9154V75H93.6194V71.556C93.6194 70.836 93.6354 70.188 93.6674 69.612C93.7074 69.036 93.7714 68.464 93.8594 67.896L94.0274 68.34L91.2794 72.588H90.4874L87.8234 68.388L87.9554 67.896C88.0434 68.432 88.1034 68.984 88.1354 69.552C88.1754 70.112 88.1954 70.78 88.1954 71.556V75H86.8994ZM97.8705 75V66.6H103.163V67.848H99.1665V73.752H103.163V75H97.8705ZM98.4585 71.316V70.068H102.503V71.316H98.4585Z" fill="black"/>
<path d="M130.176 75V66.6H133.464C134.064 66.6 134.604 66.7 135.084 66.9C135.572 67.1 135.988 67.388 136.332 67.764C136.676 68.14 136.94 68.584 137.124 69.096C137.308 69.608 137.4 70.176 137.4 70.8C137.4 71.424 137.308 71.996 137.124 72.516C136.94 73.028 136.676 73.472 136.332 73.848C135.996 74.216 135.584 74.5 135.096 74.7C134.608 74.9 134.064 75 133.464 75H130.176ZM131.472 73.884L131.436 73.752H133.404C133.828 73.752 134.204 73.684 134.532 73.548C134.868 73.412 135.148 73.22 135.372 72.972C135.604 72.716 135.78 72.404 135.9 72.036C136.02 71.668 136.08 71.256 136.08 70.8C136.08 70.344 136.02 69.936 135.9 69.576C135.78 69.208 135.604 68.896 135.372 68.64C135.14 68.384 134.86 68.188 134.532 68.052C134.204 67.916 133.828 67.848 133.404 67.848H131.4L131.472 67.74V73.884ZM143.269 75.12C142.677 75.12 142.129 75.012 141.625 74.796C141.129 74.58 140.693 74.28 140.317 73.896C139.949 73.504 139.661 73.048 139.453 72.528C139.253 72 139.153 71.424 139.153 70.8C139.153 70.176 139.253 69.604 139.453 69.084C139.661 68.556 139.949 68.1 140.317 67.716C140.693 67.324 141.129 67.02 141.625 66.804C142.129 66.588 142.677 66.48 143.269 66.48C143.861 66.48 144.405 66.588 144.901 66.804C145.405 67.02 145.841 67.324 146.209 67.716C146.585 68.108 146.873 68.568 147.073 69.096C147.281 69.616 147.385 70.184 147.385 70.8C147.385 71.416 147.281 71.988 147.073 72.516C146.873 73.036 146.585 73.492 146.209 73.884C145.841 74.276 145.405 74.58 144.901 74.796C144.405 75.012 143.861 75.12 143.269 75.12ZM143.269 73.86C143.677 73.86 144.049 73.784 144.385 73.632C144.729 73.48 145.025 73.268 145.273 72.996C145.521 72.716 145.713 72.392 145.849 72.024C145.993 71.648 146.065 71.24 146.065 70.8C146.065 70.36 145.993 69.956 145.849 69.588C145.713 69.212 145.521 68.888 145.273 68.616C145.025 68.336 144.729 68.12 144.385 67.968C144.049 67.816 143.677 67.74 143.269 67.74C142.861 67.74 142.485 67.816 142.141 67.968C141.805 68.12 141.509 68.332 141.253 68.604C141.005 68.876 140.813 69.2 140.677 69.576C140.541 69.944 140.473 70.352 140.473 70.8C140.473 71.24 140.541 71.648 140.677 72.024C140.813 72.4 141.005 72.724 141.253 72.996C141.509 73.268 141.805 73.48 142.141 73.632C142.485 73.784 142.861 73.86 143.269 73.86ZM151.469 75L148.793 66.6H150.173L151.793 71.856C151.841 71.984 151.885 72.136 151.925 72.312C151.965 72.48 152.001 72.652 152.033 72.828C152.065 73.004 152.093 73.168 152.117 73.32C152.149 73.472 152.177 73.596 152.201 73.692L151.853 73.68C151.973 73.256 152.065 72.928 152.129 72.696C152.201 72.464 152.257 72.288 152.297 72.168C152.337 72.04 152.373 71.932 152.405 71.844L153.917 68.052H155.081L156.545 71.844C156.625 72.036 156.693 72.228 156.749 72.42C156.813 72.604 156.869 72.792 156.917 72.984C156.965 73.168 157.017 73.364 157.073 73.572L156.761 73.656C156.801 73.44 156.829 73.272 156.845 73.152C156.869 73.024 156.889 72.92 156.905 72.84C156.921 72.76 156.937 72.684 156.953 72.612C156.969 72.532 156.993 72.432 157.025 72.312C157.065 72.192 157.117 72.028 157.181 71.82L158.777 66.6H160.169L157.493 75H156.593L154.373 69.744L154.481 69.792L152.345 75H151.469ZM162.234 75V66.6H163.398L168.534 73.476L168.342 73.584C168.31 73.384 168.282 73.168 168.258 72.936C168.234 72.696 168.21 72.444 168.186 72.18C168.17 71.908 168.154 71.624 168.138 71.328C168.13 71.024 168.122 70.708 168.114 70.38C168.106 70.052 168.102 69.712 168.102 69.36V66.6H169.398V75H168.21L163.158 68.376L163.29 68.208C163.33 68.696 163.362 69.112 163.386 69.456C163.418 69.792 163.442 70.08 163.458 70.32C163.482 70.552 163.498 70.744 163.506 70.896C163.514 71.04 163.518 71.16 163.518 71.256C163.526 71.352 163.53 71.436 163.53 71.508V75H162.234ZM172.349 75V66.6H173.645V73.752H177.581V75H172.349ZM183.415 75.12C182.823 75.12 182.275 75.012 181.771 74.796C181.275 74.58 180.839 74.28 180.463 73.896C180.095 73.504 179.807 73.048 179.599 72.528C179.399 72 179.299 71.424 179.299 70.8C179.299 70.176 179.399 69.604 179.599 69.084C179.807 68.556 180.095 68.1 180.463 67.716C180.839 67.324 181.275 67.02 181.771 66.804C182.275 66.588 182.823 66.48 183.415 66.48C184.007 66.48 184.551 66.588 185.047 66.804C185.551 67.02 185.987 67.324 186.355 67.716C186.731 68.108 187.019 68.568 187.219 69.096C187.427 69.616 187.531 70.184 187.531 70.8C187.531 71.416 187.427 71.988 187.219 72.516C187.019 73.036 186.731 73.492 186.355 73.884C185.987 74.276 185.551 74.58 185.047 74.796C184.551 75.012 184.007 75.12 183.415 75.12ZM183.415 73.86C183.823 73.86 184.195 73.784 184.531 73.632C184.875 73.48 185.171 73.268 185.419 72.996C185.667 72.716 185.859 72.392 185.995 72.024C186.139 71.648 186.211 71.24 186.211 70.8C186.211 70.36 186.139 69.956 185.995 69.588C185.859 69.212 185.667 68.888 185.419 68.616C185.171 68.336 184.875 68.12 184.531 67.968C184.195 67.816 183.823 67.74 183.415 67.74C183.007 67.74 182.631 67.816 182.287 67.968C181.951 68.12 181.655 68.332 181.399 68.604C181.151 68.876 180.959 69.2 180.823 69.576C180.687 69.944 180.619 70.352 180.619 70.8C180.619 71.24 180.687 71.648 180.823 72.024C180.959 72.4 181.151 72.724 181.399 72.996C181.655 73.268 181.951 73.48 182.287 73.632C182.631 73.784 183.007 73.86 183.415 73.86ZM188.775 75L192.027 66.6H193.347L196.575 75H195.195L193.275 69.936C193.251 69.88 193.203 69.744 193.131 69.528C193.067 69.312 192.991 69.072 192.903 68.808C192.815 68.544 192.735 68.304 192.663 68.088C192.591 67.864 192.543 67.72 192.519 67.656L192.795 67.644C192.747 67.78 192.687 67.952 192.615 68.16C192.551 68.368 192.479 68.588 192.399 68.82C192.327 69.052 192.255 69.272 192.183 69.48C192.111 69.68 192.051 69.848 192.003 69.984L190.095 75H188.775ZM190.215 72.912L190.695 71.664H194.511L195.063 72.912H190.215ZM198.653 75V66.6H201.941C202.541 66.6 203.081 66.7 203.561 66.9C204.049 67.1 204.465 67.388 204.809 67.764C205.153 68.14 205.417 68.584 205.601 69.096C205.785 69.608 205.877 70.176 205.877 70.8C205.877 71.424 205.785 71.996 205.601 72.516C205.417 73.028 205.153 73.472 204.809 73.848C204.473 74.216 204.061 74.5 203.573 74.7C203.085 74.9 202.541 75 201.941 75H198.653ZM199.949 73.884L199.913 73.752H201.881C202.305 73.752 202.681 73.684 203.009 73.548C203.345 73.412 203.625 73.22 203.849 72.972C204.081 72.716 204.257 72.404 204.377 72.036C204.497 71.668 204.557 71.256 204.557 70.8C204.557 70.344 204.497 69.936 204.377 69.576C204.257 69.208 204.081 68.896 203.849 68.64C203.617 68.384 203.337 68.188 203.009 68.052C202.681 67.916 202.305 67.848 201.881 67.848H199.877L199.949 67.74V73.884ZM212.193 75V66.6H215.697C216.233 66.6 216.685 66.68 217.053 66.84C217.421 67 217.697 67.24 217.881 67.56C218.073 67.872 218.169 68.256 218.169 68.712C218.169 69.168 218.041 69.556 217.785 69.876C217.537 70.196 217.189 70.416 216.741 70.536V70.296C217.117 70.376 217.445 70.52 217.725 70.728C218.005 70.928 218.221 71.18 218.373 71.484C218.533 71.788 218.613 72.136 218.613 72.528C218.613 72.928 218.549 73.284 218.421 73.596C218.301 73.9 218.117 74.156 217.869 74.364C217.629 74.572 217.337 74.732 216.993 74.844C216.649 74.948 216.257 75 215.817 75H212.193ZM213.489 73.752H215.745C216.073 73.752 216.349 73.704 216.573 73.608C216.805 73.512 216.981 73.372 217.101 73.188C217.229 72.996 217.293 72.768 217.293 72.504C217.293 72.256 217.225 72.044 217.089 71.868C216.961 71.692 216.777 71.56 216.537 71.472C216.297 71.376 216.013 71.328 215.685 71.328H213.489V73.752ZM213.489 70.08H215.625C215.865 70.08 216.077 70.032 216.261 69.936C216.453 69.84 216.601 69.708 216.705 69.54C216.817 69.372 216.873 69.18 216.873 68.964C216.873 68.604 216.753 68.328 216.513 68.136C216.273 67.944 215.929 67.848 215.481 67.848H213.489V70.08ZM220.961 75V66.6H224.537C225.017 66.6 225.457 66.72 225.857 66.96C226.265 67.192 226.589 67.512 226.829 67.92C227.069 68.32 227.189 68.772 227.189 69.276C227.189 69.732 227.069 70.156 226.829 70.548C226.589 70.94 226.269 71.256 225.869 71.496C225.469 71.728 225.025 71.844 224.537 71.844H222.257V75H220.961ZM225.953 75L223.817 71.208L225.149 70.908L227.525 75.012L225.953 75ZM222.257 70.596H224.657C224.889 70.596 225.097 70.54 225.281 70.428C225.465 70.308 225.609 70.148 225.713 69.948C225.817 69.74 225.869 69.512 225.869 69.264C225.869 68.984 225.801 68.74 225.665 68.532C225.537 68.316 225.353 68.148 225.113 68.028C224.881 67.908 224.617 67.848 224.321 67.848H222.257V70.596ZM233.304 75.12C232.712 75.12 232.164 75.012 231.66 74.796C231.164 74.58 230.728 74.28 230.352 73.896C229.984 73.504 229.696 73.048 229.488 72.528C229.288 72 229.188 71.424 229.188 70.8C229.188 70.176 229.288 69.604 229.488 69.084C229.696 68.556 229.984 68.1 230.352 67.716C230.728 67.324 231.164 67.02 231.66 66.804C232.164 66.588 232.712 66.48 233.304 66.48C233.896 66.48 234.44 66.588 234.936 66.804C235.44 67.02 235.876 67.324 236.244 67.716C236.62 68.108 236.908 68.568 237.108 69.096C237.316 69.616 237.42 70.184 237.42 70.8C237.42 71.416 237.316 71.988 237.108 72.516C236.908 73.036 236.62 73.492 236.244 73.884C235.876 74.276 235.44 74.58 234.936 74.796C234.44 75.012 233.896 75.12 233.304 75.12ZM233.304 73.86C233.712 73.86 234.084 73.784 234.42 73.632C234.764 73.48 235.06 73.268 235.308 72.996C235.556 72.716 235.748 72.392 235.884 72.024C236.028 71.648 236.1 71.24 236.1 70.8C236.1 70.36 236.028 69.956 235.884 69.588C235.748 69.212 235.556 68.888 235.308 68.616C235.06 68.336 234.764 68.12 234.42 67.968C234.084 67.816 233.712 67.74 233.304 67.74C232.896 67.74 232.52 67.816 232.176 67.968C231.84 68.12 231.544 68.332 231.288 68.604C231.04 68.876 230.848 69.2 230.712 69.576C230.576 69.944 230.508 70.352 230.508 70.8C230.508 71.24 230.576 71.648 230.712 72.024C230.848 72.4 231.04 72.724 231.288 72.996C231.544 73.268 231.84 73.48 232.176 73.632C232.52 73.784 232.896 73.86 233.304 73.86ZM243.182 75.12C242.598 75.12 242.062 75.016 241.574 74.808C241.086 74.6 240.662 74.304 240.302 73.92C239.942 73.528 239.662 73.068 239.462 72.54C239.27 72.012 239.174 71.432 239.174 70.8C239.174 70.2 239.278 69.644 239.486 69.132C239.702 68.612 239.998 68.156 240.374 67.764C240.75 67.372 241.186 67.068 241.682 66.852C242.178 66.636 242.714 66.528 243.29 66.528C243.698 66.528 244.094 66.592 244.478 66.72C244.87 66.84 245.222 67.012 245.534 67.236C245.854 67.452 246.114 67.7 246.314 67.98L245.45 68.88C245.218 68.648 244.982 68.456 244.742 68.304C244.51 68.144 244.27 68.024 244.022 67.944C243.782 67.864 243.538 67.824 243.29 67.824C242.898 67.824 242.53 67.9 242.186 68.052C241.85 68.196 241.554 68.4 241.298 68.664C241.05 68.928 240.854 69.244 240.71 69.612C240.566 69.972 240.494 70.368 240.494 70.8C240.494 71.256 240.562 71.672 240.698 72.048C240.842 72.416 241.042 72.732 241.298 72.996C241.554 73.26 241.858 73.464 242.21 73.608C242.57 73.744 242.966 73.812 243.398 73.812C243.662 73.812 243.922 73.776 244.178 73.704C244.434 73.632 244.674 73.528 244.898 73.392C245.122 73.256 245.326 73.096 245.51 72.912L246.158 73.968C245.974 74.184 245.722 74.38 245.402 74.556C245.09 74.732 244.738 74.872 244.346 74.976C243.962 75.072 243.574 75.12 243.182 75.12ZM254.003 75V66.6H255.299V75H254.003ZM248.519 75V66.6H249.815V75H248.519ZM249.083 71.436V70.188H254.579V71.436H249.083ZM261.512 75.072C260.864 75.072 260.284 74.932 259.772 74.652C259.26 74.364 258.856 73.972 258.56 73.476C258.272 72.972 258.128 72.404 258.128 71.772V66.588H259.424V71.664C259.424 72.072 259.52 72.44 259.712 72.768C259.904 73.088 260.156 73.344 260.468 73.536C260.788 73.728 261.136 73.824 261.512 73.824C261.912 73.824 262.272 73.728 262.592 73.536C262.92 73.344 263.18 73.088 263.372 72.768C263.564 72.44 263.66 72.072 263.66 71.664V66.588H264.896V71.772C264.896 72.404 264.748 72.972 264.452 73.476C264.164 73.972 263.764 74.364 263.252 74.652C262.74 74.932 262.16 75.072 261.512 75.072ZM267.731 75V66.6H271.307C271.787 66.6 272.227 66.72 272.627 66.96C273.035 67.192 273.359 67.512 273.599 67.92C273.839 68.32 273.959 68.772 273.959 69.276C273.959 69.732 273.839 70.156 273.599 70.548C273.359 70.94 273.039 71.256 272.639 71.496C272.239 71.728 271.795 71.844 271.307 71.844H269.027V75H267.731ZM272.723 75L270.587 71.208L271.919 70.908L274.295 75.012L272.723 75ZM269.027 70.596H271.427C271.659 70.596 271.867 70.54 272.051 70.428C272.235 70.308 272.379 70.148 272.483 69.948C272.587 69.74 272.639 69.512 272.639 69.264C272.639 68.984 272.571 68.74 272.435 68.532C272.307 68.316 272.123 68.148 271.883 68.028C271.651 67.908 271.387 67.848 271.091 67.848H269.027V70.596ZM276.674 75V66.6H281.966V67.848H277.97V73.752H281.966V75H276.674ZM277.262 71.316V70.068H281.306V71.316H277.262Z" fill="black"/>
<path d="M319 71H337" stroke="black" stroke-width="2" stroke-linecap="round" stroke-linejoin="round"/>
<path d="M319 65H337" stroke="black" stroke-width="2" stroke-linecap="round" stroke-linejoin="round"/>
<path d="M319 77H337" stroke="black" stroke-width="2" stroke-linecap="round" stroke-linejoin="round"/>
<defs>
<clipPath id="clip0_198_703">
<rect width="160" height="28" fill="white" transform="translate(20 9)"/>
</clipPath>
</defs>
</svg>
